<?xml version="1.0" standalone="no"?>
<!DOCTYPE svg PUBLIC "-//W3C//DTD SVG 1.1//EN" "http://www.w3.org/Graphics/SVG/1.1/DTD/svg11.dtd" >
<svg xmlns="http://www.w3.org/2000/svg">
<metadata>
This is a custom SVG webfont generated by Font Squirrel.
Copyright   :  1987 1991 1992 1993 2002 Adobe Systems Incorporated All rights reserved
Designer    : Paul Renner
Foundry URL : httpwwwadobecomtype
</metadata>
<defs>
<font id="FuturaStdExtraBoldCondensed" horiz-adv-x="1236" >
<font-face units-per-em="2048" ascent="1690" descent="-358" />
<missing-glyph horiz-adv-x="618" />
<glyph unicode=" "  horiz-adv-x="618" />
<glyph unicode="&#x09;" horiz-adv-x="618" />
<glyph unicode="&#xa0;" horiz-adv-x="618" />
<glyph unicode="!" horiz-adv-x="622" d="M74 215q0 94 67.5 162.5t157.5 68.5q100 0 172 -67.5t72 -169.5q0 -96 -70 -164t-166 -68q-98 0 -165.5 70t-67.5 168zM113 553v1079h407v-1079h-407z" />
<glyph unicode="&#x22;" horiz-adv-x="1126" d="M100 1544h408l-62 -741h-284zM618 1544h408l-61 -741h-285z" />
<glyph unicode="#" d="M125 455v233h221l29 195h-193v233h221l58 420h178l-55 -420h176l55 420h184l-57 -420h170v-233h-203l-24 -195h174v-233h-207l-61 -455h-179l60 455h-174l-62 -455h-184l61 455h-188zM528 688h177l24 195h-176z" />
<glyph unicode="$" d="M215 41v483q45 -72 119 -123t149 -51q51 0 86 26.5t35 82.5q0 68 -110 149q-6 6 -11 8q-137 111 -202.5 205t-65.5 236q0 176 88 311t248 191v210h186v-198q133 -12 248 -82v-463q-129 168 -254 168q-41 0 -71.5 -24.5t-30.5 -67.5q0 -20 8 -41t27.5 -40.5t33 -30.5 t40 -30.5t30.5 -23.5q135 -106 194.5 -198.5t59.5 -239.5q0 -164 -77 -296t-220 -192v-227h-188v190q-185 5 -322 68z" />
<glyph unicode="%" horiz-adv-x="1628" d="M70 1192q0 162 88 270.5t247.5 108.5t247.5 -108.5t88 -270.5t-88 -270.5t-247.5 -108.5t-247.5 108.5t-88 270.5zM184 61l1094 1547l166 -117l-1098 -1544zM342 1191.5q0 -151.5 63.5 -151.5t63.5 151.5t-63.5 151.5t-63.5 -151.5zM887 352q0 162 88 270.5t247.5 108.5 t248 -108.5t88.5 -270.5t-88.5 -270.5t-248 -108.5t-247.5 108.5t-88 270.5zM1159 352.5q0 -151.5 63.5 -151.5t63.5 151.5t-63.5 151.5t-63.5 -151.5z" />
<glyph unicode="&#x26;" horiz-adv-x="1499" d="M104 451q0 131 72 236.5t195 172.5q-121 150 -121 307q0 174 131 289t305 115q199 0 332 -117t133 -299q0 -123 -77 -227.5t-200 -173.5l152 -199l156 176l213 -282l-172 -160l225 -289h-440l-60 84q-178 -111 -358 -111q-199 0 -342.5 139.5t-143.5 338.5zM465 457 q0 -82 44 -119t112 -37q41 0 116 57l-166 236q-106 -59 -106 -137zM592 1176q0 -88 102 -203q72 68 102.5 111.5t30.5 89.5q0 43 -31.5 79.5t-84.5 36.5q-59 0 -89 -35.5t-30 -78.5z" />
<glyph unicode="'" horiz-adv-x="608" d="M100 1544h408l-62 -741h-284z" />
<glyph unicode="(" horiz-adv-x="655" d="M78 651q0 487 248 920l272 -127q-92 -176 -142 -387t-50 -408q0 -195 50 -405.5t142 -384.5l-272 -125q-248 432 -248 917z" />
<glyph unicode=")" horiz-adv-x="655" d="M57 -141q92 174 142.5 385t50.5 405q0 197 -50 408t-143 387l273 127q248 -432 248 -920q0 -485 -248 -917z" />
<glyph unicode="*" horiz-adv-x="864" d="M78 1231l67 174l185 -70v209h188v-223l213 72l55 -181l-208 -69l114 -168l-155 -105l-119 166l-127 -151l-146 114l127 158z" />
<glyph unicode="+" horiz-adv-x="1024" d="M53 406v235h342v379h236v-379h342v-235h-342v-394h-236v394h-342z" />
<glyph unicode="," horiz-adv-x="618" d="M-14 -328l188 744h410l-271 -744h-327z" />
<glyph unicode="-" horiz-adv-x="657" d="M78 489v332h502v-332h-502z" />
<glyph unicode="." horiz-adv-x="618" d="M76 215q0 94 67.5 162.5t157.5 68.5q100 0 172 -67.5t72 -169.5q0 -96 -69.5 -164t-166.5 -68q-98 0 -165.5 70t-67.5 168z" />
<glyph unicode="/" horiz-adv-x="1353" d="M160 -246l776 1878h258l-776 -1878h-258z" />
<glyph unicode="0" d="M72 772.5q0 110.5 15 215t54 213t98.5 188t158 131t221 51.5t221 -51.5t158 -131t98.5 -188t54 -213t15 -215t-15 -215t-54 -213t-98.5 -188.5t-158 -131.5t-221 -51.5t-221 51.5t-158 131.5t-98.5 188.5t-54 213t-15 215zM483 772q0 -442 135.5 -442t135.5 442 t-135.5 442t-135.5 -442z" />
<glyph unicode="1" d="M301 1188v356h584v-1544h-418v1188h-166z" />
<glyph unicode="2" d="M76 0l407 543q160 215 209 319q59 123 60 228q0 53 -23.5 95t-73.5 42q-100 0 -100 -189v-57h-403l-2 55q0 233 144 384t378 151q217 0 352 -144.5t135 -361.5q0 -348 -403 -719l4 -4q18 2 93 8t116 6h172v-356h-1065z" />
<glyph unicode="3" d="M100 455h408l2 -27q4 -59 32.5 -89t67.5 -30q57 0 86 40t29 100q0 88 -53.5 128.5t-130.5 40.5h-58v326h52q86 0 128 35t42 123q0 49 -20.5 91t-66.5 42q-84 0 -83 -119v-10l-404 -2q14 211 152.5 339t351.5 128q197 0 337 -128t140 -325q0 -100 -49 -186t-137 -133 q209 -109 209 -365q0 -213 -156 -337t-375 -124q-221 0 -366.5 132.5t-137.5 349.5z" />
<glyph unicode="4" d="M63 313v326l465 905h512v-899h134v-332h-134v-313h-415v313h-562zM403 645h236v264q0 23 16 197l-4 4z" />
<glyph unicode="5" d="M111 94l49 365q182 -111 327 -111q88 0 153 46t65 130q0 92 -72 133t-170 41q-141 0 -277 -55l119 901h770v-356h-440l-33 -180q41 4 60 4q195 0 328.5 -139.5t133.5 -333.5q0 -246 -168 -406t-415 -160q-231 0 -430 121z" />
<glyph unicode="6" d="M94 535q0 256 266 763l129 246h449l-324 -557l4 -4q68 43 144 43q172 0 275.5 -153.5t103.5 -335.5q0 -248 -146.5 -406t-392.5 -158q-238 0 -373 161t-135 401zM506 522q0 -217 117 -217q119 0 118 223q0 76 -26.5 136.5t-91.5 60.5q-117 0 -117 -203z" />
<glyph unicode="7" d="M92 0l572 1188h-525v356h1098l-696 -1544h-449z" />
<glyph unicode="8" d="M92 432q0 135 67.5 231.5t192.5 139.5v4q-231 68 -231 326q0 197 145.5 317.5t352 120.5t352 -121t145.5 -317q0 -258 -231 -326v-4q125 -43 192.5 -139.5t67.5 -231.5q0 -203 -157 -331t-369.5 -128t-369.5 128t-157 331zM514 485q0 -182 104.5 -182t104.5 182 q0 57 -25.5 106.5t-79 49.5t-79 -49.5t-25.5 -106.5zM528 1112q0 -141 90.5 -141t90.5 141q0 51 -20.5 90t-70 39t-70 -39t-20.5 -90z" />
<glyph unicode="9" d="M94 1008q0 248 147.5 405.5t393.5 157.5q238 0 372 -160t134 -401q0 -254 -264 -762l-132 -248h-446l324 557l-5 4q-74 -43 -143 -43q-174 0 -277.5 154t-103.5 336zM496 1016q0 -74 26.5 -135.5t91.5 -61.5q113 0 113 203q0 219 -115 219q-116 0 -116 -225z" />
<glyph unicode=":" horiz-adv-x="618" d="M76 215q0 94 67.5 162.5t157.5 68.5q100 0 172 -67.5t72 -169.5q0 -96 -69.5 -164t-166.5 -68q-98 0 -165.5 70t-67.5 168zM76 831q0 94 67.5 163t157.5 69q100 0 172 -67.5t72 -170.5q0 -96 -69.5 -163.5t-166.5 -67.5q-98 0 -165.5 69.5t-67.5 167.5z" />
<glyph unicode=";" horiz-adv-x="618" d="M-14 -328l188 744h410l-271 -744h-327zM158 834q0 92 67.5 160.5t159.5 68.5q100 0 171 -67.5t71 -168.5q0 -98 -69 -165.5t-165 -67.5q-98 0 -166.5 71t-68.5 169z" />
<glyph unicode="&#x3c;" horiz-adv-x="1024" d="M51 426v203l920 465v-228l-674 -342l674 -331v-228z" />
<glyph unicode="=" horiz-adv-x="1024" d="M53 207v235h920v-235h-920zM53 606v236h920v-236h-920z" />
<glyph unicode="&#x3e;" horiz-adv-x="1024" d="M53 -35v228l674 331l-674 342v228l920 -465v-203z" />
<glyph unicode="?" horiz-adv-x="1116" d="M57 1133v30q-4 217 133.5 353.5t352.5 136.5q221 0 363.5 -141.5t142.5 -362.5q0 -158 -77 -277.5t-229 -152.5v-160h-397v379l72 -2q111 0 165 45t54 154q0 174 -90 174q-88 0 -88 -176h-402zM317 215q0 94 68 162.5t158 68.5q100 0 171.5 -67.5t71.5 -169.5 q0 -96 -69.5 -164t-165.5 -68q-98 0 -166 70t-68 168z" />
<glyph unicode="@" horiz-adv-x="1699" d="M76 778q0 338 235.5 565.5t577.5 227.5q184 0 352 -78t276.5 -227.5t108.5 -337.5q0 -260 -168 -431t-364 -171q-41 0 -70 34.5t-16 83.5l-4 5q-131 -123 -252 -123q-160 0 -253 100t-93 264q0 201 120.5 346.5t313.5 145.5q174 0 260 -123l22 108h201l-109 -626 q-8 -45 27 -45q66 0 145.5 116.5t79.5 257.5q0 254 -160.5 403.5t-422.5 149.5q-283 0 -465 -182t-182 -463q0 -293 194.5 -475t487.5 -182q211 0 419 190h197q-248 -338 -633 -338q-346 0 -585.5 231.5t-239.5 573.5zM631 711q0 -88 45 -142.5t121 -54.5q96 0 160.5 77 t72.5 171q8 98 -34 164.5t-134 66.5q-94 0 -162.5 -84.5t-68.5 -197.5z" />
<glyph unicode="A" horiz-adv-x="1239" d="M16 0l371 1544h510l328 -1544h-432l-31 199h-281l-35 -199h-430zM537 526h176l-45 359q-6 43 -11.5 92t-10.5 107.5t-9 91.5h-4q-33 -250 -39 -291z" />
<glyph unicode="B" horiz-adv-x="1249" d="M123 0v1544h491q98 0 187.5 -22.5t170.5 -71.5t128 -138t47 -208q0 -133 -80 -221t-209 -88v-4q154 -12 233.5 -103.5t79.5 -247.5q0 -78 -24.5 -150.5t-77.5 -140t-152.5 -108.5t-232.5 -41h-561zM541 334h34q76 0 125.5 38t49.5 111.5t-49.5 110.5t-127.5 37h-32v-297z M541 944h24q72 0 119 33t47 102q0 131 -149 131h-41v-266z" />
<glyph unicode="C" horiz-adv-x="1093" d="M78 762q0 143 27.5 262t71.5 201t104.5 145.5t122 100t129 60t121 32t102.5 8.5q119 0 213 -37v-442q-94 90 -195 90q-78 0 -133 -39t-84 -103.5t-41 -130t-12 -137.5q0 -102 20.5 -188t82 -154t159.5 -68q113 0 221 99l-24 -432q-127 -55 -252 -56q-272 0 -452.5 205 t-180.5 584z" />
<glyph unicode="D" horiz-adv-x="1267" d="M123 0v1544h336q350 0 540.5 -204.5t190.5 -561.5q0 -147 -26.5 -267t-67.5 -200t-102.5 -138t-122 -91t-134 -52.5t-130 -24.5t-120.5 -5h-364zM541 373q68 0 114.5 39t68 101t31 121.5t9.5 123.5q0 401 -223 401v-786z" />
<glyph unicode="E" horiz-adv-x="1021" d="M123 0v1544h776v-364h-358v-215h321v-365h-321v-235h358v-365h-776z" />
<glyph unicode="F" horiz-adv-x="985" d="M123 0v1544h737v-364h-319v-224h299v-364h-299v-592h-418z" />
<glyph unicode="G" horiz-adv-x="1298" d="M78 764q0 154 30.5 290t97 256t187.5 190.5t283 70.5q182 0 319.5 -103.5t206.5 -277.5l-403 -150q-4 55 -36 106.5t-83 51.5q-33 0 -59.5 -13.5t-44 -37t-32 -55t-21.5 -66.5t-12 -73t-6 -73.5t-2 -68.5t1 -57v-27q0 -10 2 -47t3 -59.5t5 -61.5t11 -64.5t18.5 -56 t28 -49t40 -31t52.5 -12.5q76 0 110.5 69.5t32.5 151.5h-154v326h582l2 -66q0 -854 -557 -854q-164 0 -285 66.5t-187.5 183.5t-98 251t-31.5 290z" />
<glyph unicode="H" horiz-adv-x="1282" d="M123 0v1544h418v-553h198v553h418v-1544h-418v627h-198v-627h-418z" />
<glyph unicode="I" horiz-adv-x="663" d="M123 0v1544h418v-1544h-418z" />
<glyph unicode="J" horiz-adv-x="880" d="M49 23v432q66 -90 170 -90q41 0 67.5 19t37 56t13.5 66t3 74v964h418v-1046q0 -78 -5 -136.5t-31 -136.5t-69 -129t-127 -87t-200 -36q-134 1 -277 50z" />
<glyph unicode="K" horiz-adv-x="1298" d="M123 0v1544h418v-657h2l229 657h440l-333 -745l372 -799h-448l-260 709h-2v-709h-418z" />
<glyph unicode="L" horiz-adv-x="901" d="M123 0v1544h418v-1179h313v-365h-731z" />
<glyph unicode="M" horiz-adv-x="1689" d="M31 0l180 1544h520l119 -821h4q29 219 41 287l100 534h514l150 -1544h-434l-39 971h-4q-6 -37 -23.5 -156t-30.5 -182l-118 -633h-340l-146 971h-4q-6 -340 -6 -342l-35 -629h-448z" />
<glyph unicode="N" horiz-adv-x="1335" d="M123 0v1544h397l334 -930l4 4q-6 57 -19.5 168t-20.5 198t-7 167v393h401v-1544h-401l-311 891l-4 -4q4 -45 12 -136.5t12 -162t4 -135.5v-453h-401z" />
<glyph unicode="O" horiz-adv-x="1333" d="M76 772.5q0 147.5 33.5 284.5t101.5 255t185.5 188.5t269 70.5t269.5 -70.5t185.5 -188.5t101 -255t33.5 -284.5t-33.5 -285t-101 -255t-185.5 -188.5t-269.5 -71t-269 71t-185.5 188.5t-101.5 255t-33.5 285zM502 772q0 -410 163.5 -410t163.5 410t-163.5 410 t-163.5 -410z" />
<glyph unicode="P" horiz-adv-x="1196" d="M123 0v1544h381q645 0 645 -524q0 -287 -159 -405q-148 -110 -412 -110q-18 0 -37 1v-506h-418zM541 854h14q76 0 122 41q50 45 50 131q0 78 -41 132t-115 54l-30 -2v-356z" />
<glyph unicode="Q" horiz-adv-x="1333" d="M76 772.5q0 147.5 33.5 284.5t101.5 255t185.5 188.5t269 70.5t269.5 -70.5t185.5 -188.5t101 -255t33.5 -285q-6 -381 -172 -590l183 -213l-336 -184l-144 207q-18 -6 -59 -15q-41 -4 -61 -4q-152 0 -269.5 71t-185.5 188.5t-101.5 255t-33.5 285zM502 772 q0 -410 163.5 -410t163.5 410t-163.5 410t-163.5 -410z" />
<glyph unicode="R" d="M123 0v1544h403q143 0 252 -23.5t196 -80t132 -158.5t45 -252q0 -133 -60.5 -236.5t-179.5 -150.5l312 -643h-453l-231 643l-4 -4l6 -227v-412h-418zM541 831l26 -2q80 0 125 58.5t45 138.5q0 98 -53 144q-49 42 -129 43q-7 0 -14 -1v-381z" />
<glyph unicode="S" horiz-adv-x="966" d="M78 1063q0 74 24.5 155.5t75.5 163.5t148.5 135.5t222.5 53.5q152 0 297 -78v-469q-41 66 -109.5 116t-136.5 50q-41 0 -74.5 -26.5t-33.5 -67.5t40 -86q6 -6 76 -64q147 -102 205 -188q76 -106 76 -269q0 -219 -138.5 -367.5t-353.5 -148.5q-162 0 -313 64v483 q47 -72 118.5 -122t145.5 -50q47 0 85 27.5t38 75.5q0 49 -33 86q-20 27 -69 59q-147 115 -207 197q-84 116 -84 270z" />
<glyph unicode="T" horiz-adv-x="978" d="M47 1167v377h887v-377h-240v-1167h-418v1167h-229z" />
<glyph unicode="U" horiz-adv-x="1273" d="M113 535v1009h417v-971q0 -100 11 -135q23 -76 96 -76q78 0 96 74q10 35 10 135v973h418v-1009q0 -70 -7 -131.5t-39 -145.5t-84 -142.5t-154.5 -100.5t-239.5 -42t-239.5 42t-155 100.5t-84 142.5t-38.5 145.5t-7 131.5z" />
<glyph unicode="V" horiz-adv-x="1200" d="M0 1544h438l99 -635q10 -70 24 -196.5t21 -175.5h4q8 49 21.5 176t25.5 196l115 635h452l-420 -1544h-426z" />
<glyph unicode="W" horiz-adv-x="1744" d="M0 1544h412l92 -622q2 -14 43 -342h4q2 18 12 146t23 196l108 622h359l106 -622q10 -66 25.5 -183.5t21.5 -152.5h4q4 37 14.5 152.5t20.5 183.5l92 622h408l-311 -1544h-404l-112 627q-12 74 -26.5 195.5t-17.5 144.5h-4q-33 -338 -32 -340l-88 -627h-406z" />
<glyph unicode="X" horiz-adv-x="1259" d="M31 0l375 801l-355 743h465l68 -186q12 -33 27.5 -98.5t19.5 -79.5h4q4 20 12 56t15.5 65.5t15.5 56.5l55 186h469l-352 -743l379 -801h-463l-86 240q-8 29 -24.5 87t-24.5 87h-4q-8 -29 -24.5 -87.5t-24.5 -86.5l-93 -240h-454z" />
<glyph unicode="Y" horiz-adv-x="1189" d="M16 1544h435l143 -477h4l145 477h433l-361 -889v-655h-418v655z" />
<glyph unicode="Z" horiz-adv-x="1208" d="M47 0l422 981q25 59 119 211q-246 -12 -264 -12h-185v364h1022l-456 -1057q-10 -27 -34 -73.5t-32 -67.5q227 18 233 19h238v-365h-1063z" />
<glyph unicode="[" horiz-adv-x="614" d="M66 -240v1784h528v-256h-227v-1274h227v-254h-528z" />
<glyph unicode="\" horiz-adv-x="512" d="M-260 1632h258l774 -1878h-258z" />
<glyph unicode="]" horiz-adv-x="614" d="M20 14h228v1274h-228v256h529v-1784h-529v254z" />
<glyph unicode="^" horiz-adv-x="1024" d="M31 772l360 772h242l360 -772l-209 -96l-274 571l-270 -571z" />
<glyph unicode="_" horiz-adv-x="1024" d="M0 -154h1024v-102h-1024v102z" />
<glyph unicode="`" horiz-adv-x="778" d="M125 1567h319l109 -344h-223z" />
<glyph unicode="a" horiz-adv-x="1165" d="M61 551q0 90 15.5 178t50.5 177t105.5 143.5t168.5 54.5q168 0 261 -193l4 4l-17 166h408v-1081h-402l19 178l-4 4q-92 -205 -277 -205q-98 0 -167.5 57.5t-103.5 153t-47.5 183.5t-13.5 180zM475 506q0 -72 12 -123q18 -74 70 -74q68 0 86 99q12 55 12 147t-8 131 q-18 88 -78 88q-61 0 -84 -108q-10 -58 -10 -160z" />
<glyph unicode="b" horiz-adv-x="1165" d="M109 0v1632h401v-555l-6 -147l4 -4q78 178 250 178q104 0 177 -56.5t106.5 -149.5t48 -182t14.5 -186q0 -57 -5 -115.5t-26.5 -142.5t-56.5 -145t-101.5 -105.5t-156.5 -44.5q-154 0 -244 168l-4 -4l8 -141h-409zM496 549q0 -227 96 -227q98 0 98 225q0 223 -106 223 q-88 0 -88 -221z" />
<glyph unicode="c" horiz-adv-x="749" d="M61 545q0 231 141.5 395t368.5 164q27 0 84 -4v-350q-88 -4 -134 -56.5t-46 -140.5q0 -74 41 -137.5t113 -63.5h26v-366q-12 0 -50 -4.5t-58 -4.5q-223 0 -354.5 169.5t-131.5 398.5z" />
<glyph unicode="d" horiz-adv-x="1165" d="M61 530q0 96 14.5 185.5t48.5 182.5t106.5 149.5t175.5 56.5q174 0 251 -178l5 4q0 16 -2.5 46t-3.5 54.5t-1 46.5v555h402v-1632h-410l8 141l-4 4q-90 -168 -245 -168q-100 0 -172 54.5t-107 143.5t-50.5 176t-15.5 179zM475 547q0 -225 96 -225q59 0 78 60t19 167 q0 221 -88 221q-105 0 -105 -223z" />
<glyph unicode="e" horiz-adv-x="1114" d="M61 520q0 246 136.5 415t373.5 169q236 0 365 -176q72 -96 94.5 -208t22.5 -263h-590q0 -166 94 -166q33 0 57.5 21.5t30.5 54.5h393q-33 -184 -163 -287t-314 -103q-244 0 -372 148.5t-128 394.5zM463 674h186q-2 55 -24.5 96t-71.5 41q-47 0 -69.5 -44t-20.5 -93z" />
<glyph unicode="f" horiz-adv-x="784" d="M61 760v321h117v125q0 217 89 333t261 116q96 0 195 -29v-371q-49 37 -82 37q-41 0 -51 -35.5t-10 -123.5v-52h143v-321h-143v-760h-402v760h-117z" />
<glyph unicode="g" horiz-adv-x="1163" d="M61 537q0 86 17.5 177t54.5 182t108.5 149.5t166.5 58.5q137 0 241 -164l4 4l-8 137h410v-1087q0 -252 -121 -376t-375 -124q-440 0 -481 391h409q0 -37 22.5 -62.5t59.5 -25.5q51 0 67.5 44t16.5 141v143h-4q-29 -59 -95.5 -99t-137.5 -40q-98 0 -171 54t-111 141 t-55.5 177.5t-17.5 178.5zM475 551q0 -236 94 -236q92 0 93 230q0 49 -3.5 85t-11.5 72.5t-27.5 56t-50.5 19.5q-94 0 -94 -227z" />
<glyph unicode="h" horiz-adv-x="1177" d="M109 0v1632h401l-2 -588q0 -31 -4 -88t-4 -75l4 -4q31 94 106.5 160.5t169.5 66.5q289 0 289 -391v-713h-401v547q0 55 -3 83.5t-20.5 51.5t-50.5 23q-29 0 -46.5 -13.5t-25.5 -43.5t-10 -56.5t-2 -71.5v-520h-401z" />
<glyph unicode="i" horiz-adv-x="618" d="M76 1421q0 96 68.5 165t162.5 69q98 0 168 -66.5t70 -165t-67.5 -168t-166.5 -69.5q-96 0 -165.5 68.5t-69.5 166.5zM109 0v1081h401v-1081h-401z" />
<glyph unicode="j" horiz-adv-x="618" d="M78 1421q0 96 68.5 165t165 69t166 -67.5t69.5 -164.5q0 -98 -66.5 -167.5t-165 -69.5t-168 68.5t-69.5 166.5zM109 -483v1564h401v-1564h-401z" />
<glyph unicode="k" horiz-adv-x="1179" d="M109 0v1632h401v-1038h4l188 487h435l-267 -495l293 -586h-461l-188 543h-4v-543h-401z" />
<glyph unicode="l" horiz-adv-x="618" d="M109 0v1632h401v-1632h-401z" />
<glyph unicode="m" horiz-adv-x="1724" d="M109 0v1081h405l-6 -176l4 -4q35 90 104.5 146.5t161.5 56.5q205 0 283 -223h4q29 98 96.5 160.5t165.5 62.5q289 0 289 -387v-717h-402v586q0 129 -65 129q-59 0 -78 -72q-8 -31 -8 -121v-522h-401v598q0 111 -62 111q-63 0 -82 -74q-8 -33 -8 -121v-514h-401z" />
<glyph unicode="n" horiz-adv-x="1177" d="M109 0v1081h401l-10 -200l4 -4q31 94 106.5 160.5t169.5 66.5q289 0 289 -391v-713h-401v547q0 82 -13.5 120t-60.5 38q-53 0 -68.5 -44.5t-15.5 -140.5v-520h-401z" />
<glyph unicode="o" horiz-adv-x="1130" d="M61 540.5q0 243.5 129 403.5t375 160t375 -160t129 -403.5t-129 -403.5t-375 -160t-375 160t-129 403.5zM455 541q0 -262 110.5 -262t110.5 262t-110.5 262t-110.5 -262z" />
<glyph unicode="p" horiz-adv-x="1161" d="M109 -483v1564h401l-10 -149l4 -4q76 176 244 176q96 0 168.5 -56.5t110.5 -145.5t55.5 -180t17.5 -181t-15.5 -179.5t-50.5 -180.5t-105.5 -147.5t-168.5 -56.5q-160 0 -256 170l-4 -4q10 -168 10 -200v-426h-401zM498 551q0 -236 90 -236q98 0 98 244q0 80 -21.5 147.5 t-74.5 67.5q-92 0 -92 -223z" />
<glyph unicode="q" horiz-adv-x="1161" d="M61 541q0 90 17.5 181t55.5 180t110.5 145.5t169.5 56.5q168 0 243 -176l5 4l-11 149h402v-1564h-402v426q0 33 11 200l-5 4q-96 -170 -256 -170q-98 0 -169.5 56.5t-106.5 146.5t-50 180q-14 80 -14 159v22zM475 559q0 -244 100 -244q88 0 89 236q0 223 -93 223 q-96 0 -96 -215z" />
<glyph unicode="r" horiz-adv-x="868" d="M109 0v1081h403l-23 -207l5 -4q37 106 113 172q72 62 171 62h13v-449q-78 39 -113 39q-168 0 -168 -256v-438h-401z" />
<glyph unicode="s" horiz-adv-x="944" d="M61 90l148 299q104 -113 201 -113q31 0 54 14.5t23 41.5q0 49 -104 86q-135 47 -209 120.5t-74 200.5q0 166 122 265.5t313 99.5q174 0 329 -88l-137 -293q-37 35 -52.5 47t-50 30.5t-65.5 18.5q-23 0 -41 -14t-18 -39q0 -55 121 -100q125 -47 193.5 -118t68.5 -192 q0 -174 -127 -276.5t-305 -102.5q-185 0 -390 113z" />
<glyph unicode="t" horiz-adv-x="804" d="M86 760v321h115v318h401v-318h133v-321h-133v-760h-401v760h-115z" />
<glyph unicode="u" horiz-adv-x="1157" d="M98 444v637h402v-581q0 -104 14 -145.5t64 -41.5q51 0 65 40t14 147v581h402v-637q0 -233 -127 -350t-354 -117q-231 0 -355.5 122t-124.5 345z" />
<glyph unicode="v" horiz-adv-x="1093" d="M31 1081h405l78 -454q6 -43 15.5 -125t13.5 -111h4q6 39 16 119t15 117l90 454h395l-313 -1081h-420z" />
<glyph unicode="w" horiz-adv-x="1642" d="M31 1081h395l59 -393q31 -215 35 -258h4q8 43 22.5 129t22.5 129l82 393h342l56 -393q25 -172 32 -258h4q8 43 22.5 129t22.5 129l80 393h402l-316 -1081h-397l-80 647h-4l-121 -647h-393z" />
<glyph unicode="x" horiz-adv-x="1210" d="M47 0l328 557l-312 524h459l76 -233h4q4 12 12.5 41t14.5 43l59 149h445l-320 -516l350 -565h-465l-90 256q-6 -12 -35.5 -87t-48.5 -114l-28 -55h-449z" />
<glyph unicode="y" horiz-adv-x="1118" d="M31 1081h403l78 -372q8 -41 23.5 -121t23.5 -121h4q4 27 16.5 112t22.5 130l84 372h401l-503 -1564h-416l184 528z" />
<glyph unicode="z" horiz-adv-x="1021" d="M47 0l367 766q-154 -6 -156 -6h-154v321h873l-365 -757q90 4 133 4h166v-328h-864z" />
<glyph unicode="{" horiz-adv-x="614" d="M2 549v188q154 25 154 232v297q0 279 241 278h213v-209q-88 0 -120.5 -57t-32.5 -160v-205q0 -119 -35 -181t-133 -85v-4q98 -14 133 -89t35 -196v-198q0 -211 153 -211v-189h-225q-72 0 -120 25t-70.5 72t-30.5 97t-8 120v250q0 96 -34 149t-120 76z" />
<glyph unicode="|" horiz-adv-x="512" d="M139 -438v2048h236v-2048h-236z" />
<glyph unicode="}" horiz-adv-x="614" d="M4 -51q154 0 154 211v198q0 121 34.5 196t133.5 89v4q-98 23 -133 85.5t-35 180.5v205q0 102 -33 159.5t-121 57.5v209h213q242 0 242 -278v-297q0 -207 153 -232v-188q-86 -23 -119.5 -76t-33.5 -149v-250q0 -70 -8.5 -120t-31 -97t-70.5 -72t-120 -25h-225v189z" />
<glyph unicode="~" horiz-adv-x="1024" d="M53 465q55 113 119 183.5t154 70.5q72 0 209 -67.5t174 -67.5q41 0 70.5 31.5t76.5 119.5l117 -149q-80 -141 -127 -183q-61 -57 -137 -57q-70 0 -213.5 67.5t-167.5 67.5q-47 0 -81 -34.5t-77 -133.5z" />
<glyph unicode="&#xa2;" d="M309 811q0 164 75 307.5t214 206.5v182h195v-135q6 0 18 1t18 1q31 2 74 -8v-342q-82 2 -130 -56.5t-48 -144.5q0 -72 41 -131t111 -59h26v-373q-18 -2 -55 -4t-55 -4v-209h-195v254q-139 74 -214 212t-75 302z" />
<glyph unicode="&#xa3;" d="M92 180q111 80 182 111q41 70 41 160q0 100 -41 217h-141v215h76l-4 14q-51 170 -51 252q0 188 133 305t321 117q127 0 245 -58.5t206 -158.5l-223 -221q-72 117 -150 116q-49 0 -82 -35.5t-33 -87.5q0 -37 28 -122.5t30 -120.5h375v-215h-351q8 -158 -98 -299 q68 -2 172 -50q55 -25 96 -24q63 0 113 74l207 -113q-47 -129 -139.5 -206t-225.5 -77q-90 0 -202.5 44t-161.5 44q-98 0 -205 -71z" />
<glyph unicode="&#xa5;" d="M39 1544h434l92 -340q12 -45 51 -219h5q4 25 11 70t14 80.5t18 68.5l102 340h432l-231 -569h168v-168h-236l-61 -152v-32h297v-168h-297v-455h-418v455h-295v168h295v32l-64 152h-231v168h160z" />
<glyph unicode="&#xa7;" horiz-adv-x="1144" d="M72 647q0 188 159 299q-2 2 -21.5 25.5t-24.5 32.5l-20 32q-15 25 -20.5 45.5t-10.5 53t-5 69.5q0 164 125 265.5t348 101.5q186 0 305 -97.5t119 -279.5v-37h-287l2 33q0 68 -47 112t-121 44q-63 0 -101 -34t-38 -83q0 -39 26.5 -73t52.5 -49t73 -38q12 -6 123.5 -58.5 t167.5 -82.5q94 -51 143 -137t51 -152q4 -78 -34 -173t-113 -163q51 -25 100 -95.5t49 -139.5q0 -190 -112.5 -300t-397.5 -114q-127 -2 -221 30.5t-141 79t-76 105.5t-35 96t-6 68v30h299q-4 -84 49 -134t139 -50q66 0 114 35t48 104q0 49 -46 90.5t-159 96.5 q-213 102 -280 145q-176 117 -176 297zM406 639q23 -88 262 -186q96 94 73 182q-18 35 -56 64.5t-72.5 46t-135.5 61.5q-98 -66 -71 -168z" />
<glyph unicode="&#xa8;" horiz-adv-x="778" d="M-2 1397q0 66 49 115t117 49q70 0 121 -48.5t51 -119.5q0 -70 -49 -118t-119 -48t-120 50t-50 120zM444 1397q0 66 49.5 115t116.5 49q70 0 121 -48.5t51 -119.5q0 -70 -49 -118t-118.5 -48t-120 50t-50.5 120z" />
<glyph unicode="&#xa9;" horiz-adv-x="1699" d="M49 774q0 145 47 281.5t139.5 254t252 189.5t362.5 72q190 0 345 -65.5t253 -177t150.5 -254t52.5 -300.5q0 -340 -222.5 -570.5t-578.5 -230.5q-203 0 -360.5 71t-251 187.5t-141.5 254.5t-48 288zM248 774q0 -272 163.5 -439t434.5 -167q268 0 437 171t169 443 q0 268 -168 431t-438.5 163t-434 -166t-163.5 -436zM442 782q0 203 119 331t318 128q147 0 249.5 -81t126.5 -222h-188q-27 135 -193 135q-117 0 -175 -79t-58 -203q0 -123 58.5 -212.5t170.5 -89.5q76 0 134.5 38t62.5 106h188q-14 -141 -120.5 -226t-251.5 -85 q-201 0 -321 130.5t-120 329.5z" />
<glyph unicode="&#xaa;" horiz-adv-x="698" d="M23 1239q0 76 16 144.5t68.5 128t136.5 59.5q111 0 166 -115l4 2l-6 47l-2 51h264v-647h-260l8 107l-2 -2l-4 4q-47 -123 -174 -123q-63 0 -108.5 35t-67 91t-30.5 109.5t-9 108.5zM276 1212q0 -49 9 -73q14 -45 55 -45q45 0 57 59q8 33 9 88q0 57 -7 78q-12 53 -51 53 q-49 0 -63 -63q-9 -36 -9 -97z" />
<glyph unicode="&#xab;" horiz-adv-x="1087" d="M78 655l350 465l180 -135l-262 -330l262 -329l-180 -136zM479 655l350 465l181 -135l-262 -330l262 -329l-181 -136z" />
<glyph unicode="&#xac;" horiz-adv-x="1024" d="M53 606v236h920v-594h-236v358h-684z" />
<glyph unicode="&#xad;" horiz-adv-x="657" d="M78 489v332h502v-332h-502z" />
<glyph unicode="&#xae;" horiz-adv-x="1699" d="M49 772q0 115 28.5 225.5t91 215t154 183.5t227.5 127t300 48q190 0 345 -65.5t253 -178.5t150.5 -255t52.5 -300q0 -336 -223.5 -567.5t-577.5 -231.5q-203 0 -360.5 71t-251 187.5t-141.5 255t-48 285.5zM248 772q0 -270 163.5 -437t434.5 -167q268 0 437 171t169 441 q0 268 -168 432t-438.5 164t-434 -167t-163.5 -437zM479 336v864h486q143 -4 215.5 -65.5t72.5 -200.5q0 -117 -57 -172t-172 -64l203 -362h-226l-184 342h-139v-342h-199zM678 834h244q133 0 133 98q0 68 -42 90t-134 22h-201v-210z" />
<glyph unicode="&#xaf;" horiz-adv-x="778" d="M-6 1282v217h790v-217h-790z" />
<glyph unicode="&#xb0;" horiz-adv-x="819" d="M102 1264q-2 125 89.5 216t218.5 91t217 -91t90 -216q0 -127 -90 -217.5t-217 -90.5t-217.5 90.5t-90.5 217.5zM319 1263.5q0 -36.5 27 -63t63.5 -26.5t63.5 26.5t27 63t-27 63.5t-63.5 27t-63.5 -27t-27 -63.5z" />
<glyph unicode="&#xb1;" horiz-adv-x="1024" d="M53 -12v235h920v-235h-920zM53 580v235h342v242h236v-242h342v-235h-342v-256h-236v256h-342z" />
<glyph unicode="&#xb4;" horiz-adv-x="778" d="M207 1223l110 344h318l-203 -344h-225z" />
<glyph unicode="&#xb5;" horiz-adv-x="1177" d="M109 -483v1564h401v-520q0 -41 2 -67.5t9 -57t25.5 -45t47.5 -14.5q47 0 60.5 40t13.5 118v546h401v-712q0 -391 -289 -392q-94 0 -169.5 67t-106.5 161l-4 -4l10 -164v-520h-401z" />
<glyph unicode="&#xb6;" horiz-adv-x="1126" d="M23 1180q0 199 111.5 281.5t330.5 82.5h668v-235h-76v-1538h-277v1538h-135v-1538h-276v1058q-158 0 -252 94.5t-94 256.5z" />
<glyph unicode="&#xb7;" horiz-adv-x="618" d="M76 526q0 94 67.5 163t157.5 69q100 0 172 -67.5t72 -170.5q0 -96 -69.5 -163.5t-166.5 -67.5q-98 0 -165.5 69.5t-67.5 167.5z" />
<glyph unicode="&#xb8;" horiz-adv-x="778" d="M242 -213q53 43 53 125v18h242q-27 -254 -222 -321z" />
<glyph unicode="&#xba;" horiz-adv-x="698" d="M20 1231q0 147 87.5 243.5t245 96.5t240.5 -97.5t83 -246.5q0 -147 -86 -239.5t-244 -92.5t-242 95.5t-84 240.5zM274 1233q0 -31 4.5 -61.5t21.5 -63.5t46 -33q43 0 59.5 53.5t16.5 104.5t-16.5 104.5t-59.5 53.5q-29 0 -46 -33t-21.5 -63.5t-4.5 -61.5z" />
<glyph unicode="&#xbb;" horiz-adv-x="1087" d="M78 326l262 329l-262 330l178 135l352 -465l-352 -465zM479 326l262 329l-262 330l180 135l351 -465l-351 -465z" />
<glyph unicode="&#xc0;" horiz-adv-x="1239" d="M16 0l371 1544h510l328 -1544h-432l-31 199h-281l-35 -199h-430zM356 1999h320l108 -344h-223zM537 526h176l-45 359q-6 43 -11.5 92t-10.5 107.5t-9 91.5h-4q-33 -250 -39 -291z" />
<glyph unicode="&#xc1;" horiz-adv-x="1239" d="M16 0l371 1544h510l328 -1544h-432l-31 199h-281l-35 -199h-430zM489 1655l111 344h318l-203 -344h-226zM537 526h176l-45 359q-6 43 -11.5 92t-10.5 107.5t-9 91.5h-4q-33 -250 -39 -291z" />
<glyph unicode="&#xc2;" horiz-adv-x="1239" d="M16 0l371 1544h510l328 -1544h-432l-31 199h-281l-35 -199h-430zM291 1671l172 305h358l150 -305h-238l-94 182l-102 -182h-246zM537 526h176l-45 359q-6 43 -11.5 92t-10.5 107.5t-9 91.5h-4q-33 -250 -39 -291z" />
<glyph unicode="&#xc3;" horiz-adv-x="1239" d="M16 0l371 1544h510l328 -1544h-432l-31 199h-281l-35 -199h-430zM227 1665q-8 123 54.5 215t183.5 92q59 0 178 -47q70 -31 100 -31q61 0 66 84h207v-34q0 -113 -65.5 -194t-176.5 -81q-70 0 -157 39t-117 39q-61 0 -62 -82h-211zM537 526h176l-45 359q-6 43 -11.5 92 t-10.5 107.5t-9 91.5h-4q-33 -250 -39 -291z" />
<glyph unicode="&#xc4;" horiz-adv-x="1239" d="M16 0l371 1544h510l328 -1544h-432l-31 199h-281l-35 -199h-430zM250 1829q0 66 49 115t117 49q70 0 121 -48.5t51 -119.5q0 -70 -49.5 -118t-118.5 -48q-72 0 -121 49t-49 121zM537 526h176l-45 359q-6 43 -11.5 92t-10.5 107.5t-9 91.5h-4q-33 -250 -39 -291zM696 1829 q0 66 49.5 115t116.5 49q70 0 121 -48.5t51 -119.5q0 -70 -49 -118t-119 -48q-72 0 -121 49t-49 121z" />
<glyph unicode="&#xc5;" horiz-adv-x="1239" d="M16 0l371 1544h510l328 -1544h-432l-31 199h-281l-35 -199h-430zM408 1821q0 92 63.5 158.5t155.5 66.5q96 0 161.5 -64.5t65.5 -158.5t-65.5 -159t-157.5 -65q-90 0 -156.5 65t-66.5 157zM537 526h176l-45 359q-6 43 -11.5 92t-10.5 107.5t-9 91.5h-4q-33 -250 -39 -291 zM537 1825q0 -41 27.5 -68.5t66.5 -27.5t66.5 27.5t27.5 68.5q0 39 -26.5 65.5t-65.5 26.5t-67.5 -26.5t-28.5 -65.5z" />
<glyph unicode="&#xc6;" horiz-adv-x="1449" d="M16 0l357 1544h999v-364h-416l33 -215h350v-365h-286l41 -235h278v-365h-596l-26 197h-269l-32 -197h-433zM532 518h173l-56 434q-6 43 -12 115t-10 104h-4q-2 -23 -10.5 -96.5t-14.5 -122.5z" />
<glyph unicode="&#xc7;" horiz-adv-x="1093" d="M78 762q0 143 27.5 262t71.5 201t104.5 145.5t122 100t129 60t121 32t102.5 8.5q119 0 213 -37v-442q-94 90 -195 90q-78 0 -133 -39t-84 -103.5t-41 -130t-12 -137.5q0 -102 20.5 -188t82 -154t159.5 -68q113 0 221 99l-24 -432q-127 -55 -252 -56q-272 0 -452.5 205 t-180.5 584zM465 -213q53 43 53 125v18h242q-27 -254 -221 -321z" />
<glyph unicode="&#xc8;" horiz-adv-x="1021" d="M123 0v1544h776v-364h-358v-215h321v-365h-321v-235h358v-365h-776zM248 1999h319l109 -344h-223z" />
<glyph unicode="&#xc9;" horiz-adv-x="1021" d="M123 0v1544h776v-364h-358v-215h321v-365h-321v-235h358v-365h-776zM360 1655l111 344h317l-202 -344h-226z" />
<glyph unicode="&#xca;" horiz-adv-x="1021" d="M123 0v1544h776v-364h-358v-215h321v-365h-321v-235h358v-365h-776zM172 1671l172 305h358l150 -305h-238l-94 182l-102 -182h-246z" />
<glyph unicode="&#xcb;" horiz-adv-x="1021" d="M121 1829q0 66 49 115t117 49q70 0 121 -48.5t51 -119.5q0 -70 -49.5 -118t-119 -48t-119.5 49t-50 121zM123 0v1544h776v-364h-358v-215h321v-365h-321v-235h358v-365h-776zM567 1829q0 66 49.5 115t116.5 49q70 0 121 -48.5t51 -119.5q0 -70 -49 -118t-118.5 -48 t-120 49t-50.5 121z" />
<glyph unicode="&#xcc;" horiz-adv-x="663" d="M68 1999h319l109 -344h-224zM123 0v1544h418v-1544h-418z" />
<glyph unicode="&#xcd;" horiz-adv-x="663" d="M123 0v1544h418v-1544h-418zM150 1655l110 344h318l-203 -344h-225z" />
<glyph unicode="&#xce;" horiz-adv-x="663" d="M-8 1671l172 305h358l150 -305h-238l-94 182l-102 -182h-246zM123 0v1544h418v-1544h-418z" />
<glyph unicode="&#xcf;" horiz-adv-x="663" d="M-59 1829q0 66 49 115t116 49q70 0 121.5 -48.5t51.5 -119.5q0 -70 -49.5 -118t-119 -48t-119.5 49t-50 121zM123 0v1544h418v-1544h-418zM387 1829q0 66 49 115t117 49q70 0 121 -48.5t51 -119.5q0 -70 -49 -118t-119 -48t-120 49t-50 121z" />
<glyph unicode="&#xd0;" horiz-adv-x="1280" d="M12 600v365h123v579h336q350 0 540.5 -204.5t190.5 -561.5q0 -147 -26.5 -267t-67.5 -200t-102.5 -138t-122 -91t-134 -52.5t-130 -24.5t-119.5 -5h-365v600h-123zM553 373q68 0 115 39t68.5 101t30.5 121.5t9 123.5q0 61 -9 123.5t-30.5 132t-68.5 109.5t-115 36v-786z " />
<glyph unicode="&#xd1;" horiz-adv-x="1335" d="M123 0v1544h397l334 -930l4 4q-6 57 -19.5 168t-20.5 198t-7 167v393h401v-1544h-401l-311 891l-4 -4q4 -45 12 -136.5t12 -162t4 -135.5v-453h-401zM274 1665q-8 123 54.5 215t183.5 92q61 0 178 -47q70 -31 101 -31q61 0 65 84h207v-34q0 -113 -65.5 -194t-176.5 -81 q-70 0 -156.5 39t-117.5 39q-61 0 -62 -82h-211z" />
<glyph unicode="&#xd2;" horiz-adv-x="1333" d="M76 772.5q0 147.5 33.5 284.5t101.5 255t185.5 188.5t269 70.5t269.5 -70.5t185.5 -188.5t101 -255t33.5 -284.5t-33.5 -285t-101 -255t-185.5 -188.5t-269.5 -71t-269 71t-185.5 188.5t-101.5 255t-33.5 285zM352 1999h320l108 -344h-223zM502 772q0 -410 163.5 -410 t163.5 410t-163.5 410t-163.5 -410z" />
<glyph unicode="&#xd3;" horiz-adv-x="1333" d="M76 772.5q0 147.5 33.5 284.5t101.5 255t185.5 188.5t269 70.5t269.5 -70.5t185.5 -188.5t101 -255t33.5 -284.5t-33.5 -285t-101 -255t-185.5 -188.5t-269.5 -71t-269 71t-185.5 188.5t-101.5 255t-33.5 285zM502 772q0 -410 163.5 -410t163.5 410t-163.5 410 t-163.5 -410zM537 1655l110 344h318l-203 -344h-225z" />
<glyph unicode="&#xd4;" horiz-adv-x="1333" d="M76 772.5q0 147.5 33.5 284.5t101.5 255t185.5 188.5t269 70.5t269.5 -70.5t185.5 -188.5t101 -255t33.5 -284.5t-33.5 -285t-101 -255t-185.5 -188.5t-269.5 -71t-269 71t-185.5 188.5t-101.5 255t-33.5 285zM328 1671l172 305h358l150 -305h-238l-94 182l-103 -182 h-245zM502 772q0 -410 163.5 -410t163.5 410t-163.5 410t-163.5 -410z" />
<glyph unicode="&#xd5;" horiz-adv-x="1333" d="M76 772.5q0 147.5 33.5 284.5t101.5 255t185.5 188.5t269 70.5t269.5 -70.5t185.5 -188.5t101 -255t33.5 -284.5t-33.5 -285t-101 -255t-185.5 -188.5t-269.5 -71t-269 71t-185.5 188.5t-101.5 255t-33.5 285zM274 1665q-8 123 54.5 215t183.5 92q61 0 178 -47 q70 -31 101 -31q61 0 65 84h207v-34q0 -113 -65.5 -194t-176.5 -81q-70 0 -156.5 39t-117.5 39q-61 0 -62 -82h-211zM502 772q0 -410 163.5 -410t163.5 410t-163.5 410t-163.5 -410z" />
<glyph unicode="&#xd6;" horiz-adv-x="1333" d="M76 772.5q0 147.5 33.5 284.5t101.5 255t185.5 188.5t269 70.5t269.5 -70.5t185.5 -188.5t101 -255t33.5 -284.5t-33.5 -285t-101 -255t-185.5 -188.5t-269.5 -71t-269 71t-185.5 188.5t-101.5 255t-33.5 285zM276 1829q0 66 49.5 115t116.5 49q70 0 121 -48.5t51 -119.5 q0 -70 -49 -118t-118.5 -48t-120 49t-50.5 121zM502 772q0 -410 163.5 -410t163.5 410t-163.5 410t-163.5 -410zM723 1829q0 66 49 115t117 49q70 0 121 -48.5t51 -119.5q0 -70 -49 -118t-119 -48t-120 49t-50 121z" />
<glyph unicode="&#xd8;" horiz-adv-x="1333" d="M43 55l143 213q-111 213 -110 504q0 147 33.5 284.5t101.5 255.5t185.5 188.5t269.5 70.5q211 0 368 -152l103 150l151 -105l-137 -198q104 -221 104 -494q0 -147 -33.5 -284.5t-101 -255t-185.5 -188.5t-269 -71q-215 0 -365 138l-108 -158zM494 690h4l272 410 q-10 43 -40 69.5t-71 26.5q-166 0 -165 -463v-43zM555 440q10 -39 39 -65.5t68 -26.5q55 0 93 48t54 123t22.5 132.5t6.5 110.5v92h-4z" />
<glyph unicode="&#xd9;" horiz-adv-x="1273" d="M113 535v1009h417v-971q0 -100 11 -135q23 -76 96 -76q78 0 96 74q10 35 10 135v973h418v-1009q0 -70 -7 -131.5t-39 -145.5t-84 -142.5t-154.5 -100.5t-239.5 -42t-239.5 42t-155 100.5t-84 142.5t-38.5 145.5t-7 131.5zM322 1999h319l109 -344h-224z" />
<glyph unicode="&#xda;" horiz-adv-x="1273" d="M113 535v1009h417v-971q0 -100 11 -135q23 -76 96 -76q78 0 96 74q10 35 10 135v973h418v-1009q0 -70 -7 -131.5t-39 -145.5t-84 -142.5t-154.5 -100.5t-239.5 -42t-239.5 42t-155 100.5t-84 142.5t-38.5 145.5t-7 131.5zM506 1655l110 344h318l-203 -344h-225z" />
<glyph unicode="&#xdb;" horiz-adv-x="1273" d="M113 535v1009h417v-971q0 -100 11 -135q23 -76 96 -76q78 0 96 74q10 35 10 135v973h418v-1009q0 -70 -7 -131.5t-39 -145.5t-84 -142.5t-154.5 -100.5t-239.5 -42t-239.5 42t-155 100.5t-84 142.5t-38.5 145.5t-7 131.5zM297 1671l172 305h358l150 -305h-238l-94 182 l-102 -182h-246z" />
<glyph unicode="&#xdc;" horiz-adv-x="1273" d="M113 535v1009h417v-971q0 -100 11 -135q23 -76 96 -76q78 0 96 74q10 35 10 135v973h418v-1009q0 -70 -7 -131.5t-39 -145.5t-84 -142.5t-154.5 -100.5t-239.5 -42t-239.5 42t-155 100.5t-84 142.5t-38.5 145.5t-7 131.5zM246 1829q0 66 49 115t117 49q70 0 121 -48.5 t51 -119.5q0 -70 -49.5 -118t-118.5 -48q-72 0 -121 49t-49 121zM692 1829q0 66 49.5 115t116.5 49q70 0 121 -48.5t51 -119.5q0 -70 -49 -118t-119 -48q-72 0 -121 49t-49 121z" />
<glyph unicode="&#xdd;" horiz-adv-x="1189" d="M16 1544h435l143 -477h4l145 477h433l-361 -889v-655h-418v655zM465 1655l110 344h318l-203 -344h-225z" />
<glyph unicode="&#xde;" horiz-adv-x="1196" d="M123 0v1544h418v-205q608 0 608 -524q0 -287 -159 -404.5t-449 -109.5v-301h-418zM541 649q86 -4 136 41t50 131q0 76 -41 129.5t-115 53.5l-30 -3v-352z" />
<glyph unicode="&#xdf;" horiz-adv-x="1255" d="M61 760v321h111q0 123 15.5 208t68.5 161q66 96 174.5 150.5t226.5 54.5q188 0 333 -120t145 -304q0 -113 -54.5 -205t-156.5 -108v-5q86 -6 150.5 -67.5t92 -143t27.5 -167.5q0 -238 -142.5 -399t-375.5 -161v344q104 18 104 211q0 205 -104 230v321q78 20 78 113 q0 41 -23.5 71.5t-64.5 30.5q-33 0 -53.5 -13t-27.5 -39.5t-9.5 -45t-2.5 -53.5v-1145h-401v760h-111z" />
<glyph unicode="&#xe0;" horiz-adv-x="1165" d="M61 551q0 90 15.5 178t50.5 177t105.5 143.5t168.5 54.5q168 0 261 -193l4 4l-17 166h408v-1081h-402l19 178l-4 4q-92 -205 -277 -205q-98 0 -167.5 57.5t-103.5 153t-47.5 183.5t-13.5 180zM319 1567h320l109 -344h-224zM475 506q0 -72 12 -123q18 -74 70 -74 q68 0 86 99q12 55 12 147t-8 131q-18 88 -78 88q-61 0 -84 -108q-10 -58 -10 -160z" />
<glyph unicode="&#xe1;" horiz-adv-x="1165" d="M61 551q0 90 15.5 178t50.5 177t105.5 143.5t168.5 54.5q168 0 261 -193l4 4l-17 166h408v-1081h-402l19 178l-4 4q-92 -205 -277 -205q-98 0 -167.5 57.5t-103.5 153t-47.5 183.5t-13.5 180zM453 1223l110 344h318l-203 -344h-225zM475 506q0 -72 12 -123q18 -74 70 -74 q68 0 86 99q12 55 12 147t-8 131q-18 88 -78 88q-61 0 -84 -108q-10 -58 -10 -160z" />
<glyph unicode="&#xe2;" horiz-adv-x="1165" d="M61 551q0 90 15.5 178t50.5 177t105.5 143.5t168.5 54.5q168 0 261 -193l4 4l-17 166h408v-1081h-402l19 178l-4 4q-92 -205 -277 -205q-98 0 -167.5 57.5t-103.5 153t-47.5 183.5t-13.5 180zM244 1239l172 305h358l150 -305h-238l-94 182l-103 -182h-245zM475 506 q0 -72 12 -123q18 -74 70 -74q68 0 86 99q12 55 12 147t-8 131q-18 88 -78 88q-61 0 -84 -108q-10 -58 -10 -160z" />
<glyph unicode="&#xe3;" horiz-adv-x="1165" d="M61 551q0 90 15.5 178t50.5 177t105.5 143.5t168.5 54.5q168 0 261 -193l4 4l-17 166h408v-1081h-402l19 178l-4 4q-92 -205 -277 -205q-98 0 -167.5 57.5t-103.5 153t-47.5 183.5t-13.5 180zM190 1233q-8 123 54.5 215t183.5 92q59 0 178 -47q70 -31 101 -31q61 0 65 84 h207v-35q0 -113 -65.5 -193.5t-176.5 -80.5q-70 0 -156.5 39t-117.5 39q-61 0 -62 -82h-211zM475 506q0 -72 12 -123q18 -74 70 -74q68 0 86 99q12 55 12 147t-8 131q-18 88 -78 88q-61 0 -84 -108q-10 -58 -10 -160z" />
<glyph unicode="&#xe4;" horiz-adv-x="1165" d="M61 551q0 90 15.5 178t50.5 177t105.5 143.5t168.5 54.5q168 0 261 -193l4 4l-17 166h408v-1081h-402l19 178l-4 4q-92 -205 -277 -205q-98 0 -167.5 57.5t-103.5 153t-47.5 183.5t-13.5 180zM193 1397q0 66 49 115t116 49q70 0 121 -48.5t51 -119.5q0 -70 -49 -118 t-119 -48q-72 0 -120.5 50t-48.5 120zM475 506q0 -72 12 -123q18 -74 70 -74q68 0 86 99q12 55 12 147t-8 131q-18 88 -78 88q-61 0 -84 -108q-10 -58 -10 -160zM639 1397q0 66 49 115t117 49q70 0 121 -48.5t51 -119.5q0 -70 -49 -118t-119 -48q-72 0 -121 50t-49 120z" />
<glyph unicode="&#xe5;" horiz-adv-x="1165" d="M61 551q0 90 15.5 178t50.5 177t105.5 143.5t168.5 54.5q168 0 261 -193l4 4l-17 166h408v-1081h-402l19 178l-4 4q-92 -205 -277 -205q-98 0 -167.5 57.5t-103.5 153t-47.5 183.5t-13.5 180zM360 1388.5q0 92.5 63.5 159t156.5 66.5q96 0 161.5 -64.5t65.5 -159 t-65.5 -159t-157.5 -64.5q-90 0 -157 64.5t-67 157zM475 506q0 -72 12 -123q18 -74 70 -74q68 0 86 99q12 55 12 147t-8 131q-18 88 -78 88q-61 0 -84 -108q-10 -58 -10 -160zM489 1393q0 -41 28 -69t67 -28t66.5 28t27.5 69q0 39 -26.5 65.5t-65.5 26.5t-68 -26.5 t-29 -65.5z" />
<glyph unicode="&#xe6;" horiz-adv-x="1699" d="M61 348q0 168 111 258t283 90q98 0 204 -22q-16 131 -208 131q-150 0 -271 -62v314q178 47 328 47q213 0 328 -107q143 106 321 107q236 0 358.5 -168t122.5 -412v-67h-589v-23q10 -143 94 -143q33 0 57.5 21.5t30.5 54.5h393q-33 -184 -163 -287t-314 -103 q-188 0 -326 111q-162 -111 -350 -111q-168 0 -289 102.5t-121 268.5zM453 346q0 -45 29.5 -69.5t76.5 -24.5q45 0 74 24.5t29 71.5q0 45 -30 69.5t-77 24.5q-45 0 -73.5 -25.5t-28.5 -70.5zM1049 674h186q-2 55 -24.5 96t-71.5 41q-47 0 -69.5 -44t-20.5 -93z" />
<glyph unicode="&#xe7;" horiz-adv-x="749" d="M61 545q0 231 141.5 395t368.5 164q27 0 84 -4v-350q-88 -4 -134 -56.5t-46 -140.5q0 -74 41 -137.5t113 -63.5h26v-366q-12 0 -50 -4.5t-58 -4.5q-223 0 -354.5 169.5t-131.5 398.5zM268 -213q53 43 54 125v18h241q-27 -254 -221 -321z" />
<glyph unicode="&#xe8;" horiz-adv-x="1114" d="M61 520q0 246 136.5 415t373.5 169q236 0 365 -176q72 -96 94.5 -208t22.5 -263h-590q0 -166 94 -166q33 0 57.5 21.5t30.5 54.5h393q-33 -184 -163 -287t-314 -103q-244 0 -372 148.5t-128 394.5zM242 1567h319l109 -344h-224zM463 674h186q-2 55 -24.5 96t-71.5 41 q-47 0 -69.5 -44t-20.5 -93z" />
<glyph unicode="&#xe9;" horiz-adv-x="1114" d="M61 520q0 246 136.5 415t373.5 169q236 0 365 -176q72 -96 94.5 -208t22.5 -263h-590q0 -166 94 -166q33 0 57.5 21.5t30.5 54.5h393q-33 -184 -163 -287t-314 -103q-244 0 -372 148.5t-128 394.5zM426 1223l111 344h317l-203 -344h-225zM463 674h186q-2 55 -24.5 96 t-71.5 41q-47 0 -69.5 -44t-20.5 -93z" />
<glyph unicode="&#xea;" horiz-adv-x="1114" d="M61 520q0 246 136.5 415t373.5 169q236 0 365 -176q72 -96 94.5 -208t22.5 -263h-590q0 -166 94 -166q33 0 57.5 21.5t30.5 54.5h393q-33 -184 -163 -287t-314 -103q-244 0 -372 148.5t-128 394.5zM217 1239l172 305h359l149 -305h-238l-94 182l-102 -182h-246zM463 674 h186q-2 55 -24.5 96t-71.5 41q-47 0 -69.5 -44t-20.5 -93z" />
<glyph unicode="&#xeb;" horiz-adv-x="1114" d="M61 520q0 246 136.5 415t373.5 169q236 0 365 -176q72 -96 94.5 -208t22.5 -263h-590q0 -166 94 -166q33 0 57.5 21.5t30.5 54.5h393q-33 -184 -163 -287t-314 -103q-244 0 -372 148.5t-128 394.5zM166 1397q0 66 49 115t117 49q70 0 121 -48.5t51 -119.5q0 -70 -49 -118 t-119 -48t-120 50t-50 120zM463 674h186q-2 55 -24.5 96t-71.5 41q-47 0 -69.5 -44t-20.5 -93zM612 1397q0 66 49.5 115t116.5 49q70 0 121 -48.5t51 -119.5q0 -70 -49 -118t-118.5 -48t-120 50t-50.5 120z" />
<glyph unicode="&#xec;" horiz-adv-x="618" d="M14 1567h320l108 -344h-223zM109 0v1081h401v-1081h-401z" />
<glyph unicode="&#xed;" horiz-adv-x="618" d="M109 0v1081h401v-1081h-401zM158 1223l110 344h318l-203 -344h-225z" />
<glyph unicode="&#xee;" horiz-adv-x="618" d="M-31 1239l172 305h359l149 -305h-237l-95 182l-102 -182h-246zM109 0v1081h401v-1081h-401z" />
<glyph unicode="&#xef;" horiz-adv-x="618" d="M-82 1397q0 66 49 115t117 49q70 0 121 -48.5t51 -119.5q0 -70 -49 -118t-119 -48q-72 0 -121 50t-49 120zM109 0v1081h401v-1081h-401zM365 1397q0 66 49 115t116 49q70 0 121 -48.5t51 -119.5q0 -70 -49 -118t-118 -48q-72 0 -121 50t-49 120z" />
<glyph unicode="&#xf0;" horiz-adv-x="1128" d="M61 539q4 252 130 408.5t370 133.5q-59 102 -147 197l-152 -86l-94 127l143 82q-14 16 -79.5 75.5t-71.5 67.5l268 131q66 -53 141 -131l156 86l102 -123l-151 -82q197 -221 299 -427.5t92 -467.5q-8 -244 -138 -398.5t-370 -154.5t-369 159t-129 403zM455 541 q0 -86 24.5 -174t88 -88t89 88t25.5 174q0 283 -117 282q-110 1 -110 -282z" />
<glyph unicode="&#xf1;" horiz-adv-x="1177" d="M109 0v1081h401l-10 -200l4 -4q31 94 106.5 160.5t169.5 66.5q289 0 289 -391v-713h-401v547q0 82 -13.5 120t-60.5 38q-53 0 -68.5 -44.5t-15.5 -140.5v-520h-401zM197 1233q-8 123 54 215t183 92q61 0 178 -47q70 -31 101 -31q61 0 65 84h207v-35q0 -113 -65.5 -193.5 t-176.5 -80.5q-70 0 -156.5 39t-117.5 39q-61 0 -61 -82h-211z" />
<glyph unicode="&#xf2;" horiz-adv-x="1130" d="M61 540.5q0 243.5 129 403.5t375 160t375 -160t129 -403.5t-129 -403.5t-375 -160t-375 160t-129 403.5zM260 1567h320l108 -344h-223zM455 541q0 -262 110.5 -262t110.5 262t-110.5 262t-110.5 -262z" />
<glyph unicode="&#xf3;" horiz-adv-x="1130" d="M61 540.5q0 243.5 129 403.5t375 160t375 -160t129 -403.5t-129 -403.5t-375 -160t-375 160t-129 403.5zM424 1223l111 344h317l-203 -344h-225zM455 541q0 -262 110.5 -262t110.5 262t-110.5 262t-110.5 -262z" />
<glyph unicode="&#xf4;" horiz-adv-x="1130" d="M61 540.5q0 243.5 129 403.5t375 160t375 -160t129 -403.5t-129 -403.5t-375 -160t-375 160t-129 403.5zM225 1239l172 305h359l149 -305h-237l-95 182l-102 -182h-246zM455 541q0 -262 110.5 -262t110.5 262t-110.5 262t-110.5 -262z" />
<glyph unicode="&#xf5;" horiz-adv-x="1130" d="M61 540.5q0 243.5 129 403.5t375 160t375 -160t129 -403.5t-129 -403.5t-375 -160t-375 160t-129 403.5zM172 1233q-8 123 54.5 215t183.5 92q61 0 178 -47q70 -31 100 -31q61 0 66 84h207v-35q0 -113 -66 -193.5t-176 -80.5q-70 0 -157 39t-118 39q-61 0 -61 -82h-211z M455 541q0 -262 110.5 -262t110.5 262t-110.5 262t-110.5 -262z" />
<glyph unicode="&#xf6;" horiz-adv-x="1130" d="M61 540.5q0 243.5 129 403.5t375 160t375 -160t129 -403.5t-129 -403.5t-375 -160t-375 160t-129 403.5zM174 1397q0 66 49 115t117 49q70 0 121 -48.5t51 -119.5q0 -70 -49 -118t-119 -48t-120 50t-50 120zM455 541q0 -262 110.5 -262t110.5 262t-110.5 262t-110.5 -262 zM621 1397q0 66 49 115t116 49q70 0 121 -48.5t51 -119.5q0 -70 -49 -118t-118.5 -48t-119.5 50t-50 120z" />
<glyph unicode="&#xf7;" horiz-adv-x="1024" d="M53 406v235h920v-235h-920zM350 27v235h326v-235h-326zM350 784v236h326v-236h-326z" />
<glyph unicode="&#xf8;" horiz-adv-x="1130" d="M61 541q0 244 129 403.5t375 159.5q135 0 236 -53l112 157l160 -123l-121 -155q117 -145 117 -389t-129 -404t-375 -160q-133 0 -235 52l-113 -152l-151 127l110 143q-115 146 -115 394zM455 541q0 -262 110.5 -262t110.5 262t-110.5 262t-110.5 -262z" />
<glyph unicode="&#xf9;" horiz-adv-x="1157" d="M98 444v637h402v-581q0 -104 14 -145.5t64 -41.5q51 0 65 40t14 147v581h402v-637q0 -233 -127 -350t-354 -117q-231 0 -355.5 122t-124.5 345zM285 1567h319l109 -344h-224z" />
<glyph unicode="&#xfa;" horiz-adv-x="1157" d="M98 444v637h402v-581q0 -104 14 -145.5t64 -41.5q51 0 65 40t14 147v581h402v-637q0 -233 -127 -350t-354 -117q-231 0 -355.5 122t-124.5 345zM428 1223l111 344h317l-203 -344h-225z" />
<glyph unicode="&#xfb;" horiz-adv-x="1157" d="M98 444v637h402v-581q0 -104 14 -145.5t64 -41.5q51 0 65 40t14 147v581h402v-637q0 -233 -127 -350t-354 -117q-231 0 -355.5 122t-124.5 345zM240 1239l172 305h358l150 -305h-238l-94 182l-103 -182h-245z" />
<glyph unicode="&#xfc;" horiz-adv-x="1157" d="M98 444v637h402v-581q0 -104 14 -145.5t64 -41.5q51 0 65 40t14 147v581h402v-637q0 -233 -127 -350t-354 -117q-231 0 -355.5 122t-124.5 345zM188 1397q0 66 49.5 115t116.5 49q70 0 121 -48.5t51 -119.5q0 -70 -49 -118t-119 -48q-72 0 -121 50t-49 120zM635 1397 q0 66 49 115t117 49q70 0 121 -48.5t51 -119.5q0 -70 -49.5 -118t-118.5 -48q-72 0 -121 50t-49 120z" />
<glyph unicode="&#xfd;" horiz-adv-x="1118" d="M31 1081h403l78 -372q8 -41 23.5 -121t23.5 -121h4q4 27 16.5 112t22.5 130l84 372h401l-503 -1564h-416l184 528zM438 1223l111 344h317l-202 -344h-226z" />
<glyph unicode="&#xfe;" horiz-adv-x="1161" d="M109 -483v1978h401v-383q0 -31 -10 -180l4 -4q76 176 244 176q96 0 168.5 -56.5t110.5 -145.5t55.5 -180t17.5 -181t-15.5 -179.5t-50.5 -180.5t-105.5 -147.5t-168.5 -56.5q-160 0 -256 170l-4 -4l6 -77l4 -123v-426h-401zM498 551q0 -236 90 -236q98 0 98 244 q0 41 -5 83t-28.5 87t-62.5 45q-92 0 -92 -223z" />
<glyph unicode="&#xff;" horiz-adv-x="1118" d="M31 1081h403l78 -372q8 -41 23.5 -121t23.5 -121h4q4 27 16.5 112t22.5 130l84 372h401l-503 -1564h-416l184 528zM168 1397q0 66 49 115t117 49q70 0 121 -48.5t51 -119.5q0 -70 -49 -118t-119 -48q-72 0 -121 50t-49 120zM614 1397q0 66 49.5 115t116.5 49 q70 0 121 -48.5t51 -119.5q0 -70 -49 -118t-119 -48q-72 0 -121 50t-49 120z" />
<glyph unicode="&#x131;" horiz-adv-x="618" d="M109 0v1081h401v-1081h-401z" />
<glyph unicode="&#x152;" horiz-adv-x="1689" d="M76 784q0 135 29.5 266.5t92 252t174 194.5t259.5 74q25 0 231 -27h715v-364h-342v-215h309v-365h-309v-235h346v-365h-739q-68 -16 -109 -20q-55 -6 -108 -7q-150 0 -261.5 77t-172 202t-88 259t-27.5 273zM502 758q0 -141 24 -238q43 -162 144 -162q147 0 147 424 q0 403 -145 404q-102 0 -146 -180q-24 -105 -24 -248z" />
<glyph unicode="&#x153;" horiz-adv-x="1705" d="M61 547q0 244 132.5 400.5t365.5 156.5q168 0 309 -98q129 98 306 98q227 0 349 -168t122 -412v-67h-590v-23q0 -53 22.5 -98t71.5 -45q33 0 57.5 21.5t30.5 54.5h393q-33 -184 -161 -287t-306 -103q-174 0 -315 97q-123 -96 -275 -97q-244 0 -378 157t-134 413zM455 541 q0 -86 24.5 -174t88 -88t89 88t25.5 174q0 88 -25.5 175t-91.5 87q-33 0 -57.5 -30t-34.5 -77t-14 -84.5t-4 -70.5zM1055 674h186q-2 55 -24.5 96t-71.5 41q-47 0 -69.5 -44t-20.5 -93z" />
<glyph unicode="&#x178;" horiz-adv-x="1189" d="M16 1544h435l143 -477h4l145 477h433l-361 -889v-655h-418v655zM205 1829q0 66 49 115t117 49q70 0 121 -48.5t51 -119.5q0 -70 -49.5 -118t-118.5 -48q-72 0 -121 49t-49 121zM651 1829q0 66 49.5 115t116.5 49q70 0 121 -48.5t51 -119.5q0 -70 -49 -118t-119 -48 q-72 0 -121 49t-49 121z" />
<glyph unicode="&#x192;" d="M123 -276l51 329q49 -4 72 -4q63 0 82.5 21.5t29.5 85.5l101 606h-127l53 323h129l33 201q18 102 38.5 168t61.5 126t111.5 89t173.5 29q63 0 155 -21l25 -4l-43 -321q-8 0 -33.5 4t-40.5 4q-33 0 -52 -15.5t-25.5 -33t-12.5 -54.5l-28 -172h124l-55 -323h-123l-123 -719 q-27 -158 -134 -254t-265 -96q-80 0 -178 31z" />
<glyph unicode="&#x2c6;" horiz-adv-x="778" d="M49 1239l172 305h359l149 -305h-237l-95 182l-102 -182h-246z" />
<glyph unicode="&#x2da;" horiz-adv-x="778" d="M166 1388.5q0 92.5 63.5 159t155.5 66.5q96 0 161.5 -64.5t65.5 -159t-65.5 -159t-157.5 -64.5q-90 0 -156.5 64.5t-66.5 157zM295 1393q0 -41 27.5 -69t66.5 -28t66.5 28t27.5 69q0 39 -26.5 65.5t-65.5 26.5t-67.5 -26.5t-28.5 -65.5z" />
<glyph unicode="&#x2dc;" horiz-adv-x="778" d="M-4 1233q-8 123 54.5 215t182.5 92q61 0 179 -47q70 -31 100 -31q61 0 66 84h206v-35q0 -113 -65.5 -193.5t-175.5 -80.5q-70 0 -157 39t-118 39q-61 0 -61 -82h-211z" />
<glyph unicode="&#x3a9;" horiz-adv-x="1540" d="M63 0v295h277v8q-246 242 -246 569q0 279 188.5 485t491.5 206q162 0 294 -63.5t210 -165t120 -216t42 -227.5q0 -180 -71 -332.5t-179 -255.5v-8h280v-295h-622v219q96 61 153 193q66 158 66 397q0 201 -78 324.5t-217 123.5q-137 0 -221 -128t-84 -336 q0 -221 62.5 -371t158.5 -203v-219h-625z" />
<glyph unicode="&#x3c0;" horiz-adv-x="1378" d="M2 1081q94 84 395 84h961l-27 -311h-137v-524q0 -201 25 -330h-355q-41 74 -41 319v535h-229q-8 -184 -42 -436t-85 -418h-356q51 201 85.5 451.5t34.5 402.5q-127 0 -194 -16z" />
<glyph unicode="&#x2000;" horiz-adv-x="1024" />
<glyph unicode="&#x2001;" horiz-adv-x="2048" />
<glyph unicode="&#x2002;" horiz-adv-x="1024" />
<glyph unicode="&#x2003;" horiz-adv-x="2048" />
<glyph unicode="&#x2004;" horiz-adv-x="681" />
<glyph unicode="&#x2005;" horiz-adv-x="512" />
<glyph unicode="&#x2006;" horiz-adv-x="339" />
<glyph unicode="&#x2007;" />
<glyph unicode="&#x2008;" horiz-adv-x="618" />
<glyph unicode="&#x2009;" horiz-adv-x="204" />
<glyph unicode="&#x200a;" horiz-adv-x="20" />
<glyph unicode="&#x200b;" horiz-adv-x="0" />
<glyph unicode="&#x200c;" horiz-adv-x="0" />
<glyph unicode="&#x200d;" horiz-adv-x="0" />
<glyph unicode="&#x200e;" horiz-adv-x="681" />
<glyph unicode="&#x200f;" horiz-adv-x="681" />
<glyph unicode="&#x2010;" horiz-adv-x="657" d="M78 489v332h502v-332h-502z" />
<glyph unicode="&#x2011;" horiz-adv-x="657" d="M78 489v332h502v-332h-502z" />
<glyph unicode="&#x2012;" d="M78 489v332h1081v-332h-1081z" />
<glyph unicode="&#x2013;" horiz-adv-x="1024" d="M0 489v332h1024v-332h-1024z" />
<glyph unicode="&#x2014;" horiz-adv-x="2048" d="M266 489v332h1516v-332h-1516z" />
<glyph unicode="&#x2015;" horiz-adv-x="4096" d="M78 489v332h3940v-332h-3940z" />
<glyph unicode="&#x2016;" horiz-adv-x="1024" d="M651 -438v2048h236v-2048h-236zM139 -438v2048h236v-2048h-236z" />
<glyph unicode="&#x2018;" horiz-adv-x="753" d="M78 803l268 741h330l-189 -741h-409z" />
<glyph unicode="&#x2019;" horiz-adv-x="753" d="M78 803l188 741h410l-270 -741h-328z" />
<glyph unicode="&#x201a;" horiz-adv-x="753" d="M78 -326l188 744h410l-270 -744h-328z" />
<glyph unicode="&#x201c;" horiz-adv-x="1255" d="M78 803l268 741h330l-189 -741h-409zM580 803l270 741h328l-189 -741h-409z" />
<glyph unicode="&#x201d;" horiz-adv-x="1255" d="M78 803l188 741h410l-270 -741h-328zM580 803l188 741h410l-269 -741h-329z" />
<glyph unicode="&#x201e;" horiz-adv-x="1255" d="M78 -326l188 744h410l-270 -744h-328zM580 -326l188 744h410l-269 -744h-329z" />
<glyph unicode="&#x2020;" horiz-adv-x="1226" d="M78 829v310h358v405h355v-405h358v-310h-358v-1169h-355v1169h-358z" />
<glyph unicode="&#x2021;" horiz-adv-x="1226" d="M78 270v310h358v270h-358v309h358v385h355v-385h358v-309h-358v-270h358v-310h-358v-610h-355v610h-358z" />
<glyph unicode="&#x2022;" horiz-adv-x="860" d="M43 776q0 160 112.5 272.5t272.5 112.5q162 0 276.5 -113.5t114.5 -271.5q0 -162 -114.5 -276.5t-276.5 -114.5q-160 0 -272.5 114.5t-112.5 276.5z" />
<glyph unicode="&#x2024;" horiz-adv-x="618" d="M76 215q0 94 67.5 162.5t157.5 68.5q100 0 172 -67.5t72 -169.5q0 -96 -69.5 -164t-166.5 -68q-98 0 -165.5 70t-67.5 168z" />
<glyph unicode="&#x2025;" d="M694 215q0 94 67.5 162.5t157.5 68.5q100 0 172 -67.5t72 -169.5q0 -96 -69.5 -164t-166.5 -68q-98 0 -165.5 70t-67.5 168zM76 215q0 94 67.5 162.5t157.5 68.5q100 0 172 -67.5t72 -169.5q0 -96 -69.5 -164t-166.5 -68q-98 0 -165.5 70t-67.5 168z" />
<glyph unicode="&#x2026;" horiz-adv-x="2048" d="M106 215q0 94 68 162.5t158 68.5q100 0 171.5 -67.5t71.5 -169.5q0 -96 -69.5 -164t-165.5 -68q-98 0 -166 70t-68 168zM788 215q0 94 68 162.5t158 68.5q100 0 171.5 -67.5t71.5 -169.5q0 -96 -69.5 -164t-165.5 -68q-98 0 -166 70t-68 168zM1470 215q0 94 68 162.5 t158 68.5q100 0 171.5 -67.5t71.5 -169.5q0 -96 -69.5 -164t-165.5 -68q-98 0 -166 70t-68 168z" />
<glyph unicode="&#x202a;" horiz-adv-x="0" />
<glyph unicode="&#x202f;" horiz-adv-x="407" />
<glyph unicode="&#x2030;" horiz-adv-x="2369" d="M70 1192q0 162 88 270.5t247.5 108.5t247.5 -108.5t88 -270.5t-88 -270.5t-247.5 -108.5t-247.5 108.5t-88 270.5zM184 61l1094 1547l166 -117l-1098 -1544zM342 1191.5q0 -151.5 63.5 -151.5t63.5 151.5t-63.5 151.5t-63.5 -151.5zM887 352q0 162 88 270.5t247.5 108.5 t248 -108.5t88.5 -270.5t-88.5 -270.5t-248 -108.5t-247.5 108.5t-88 270.5zM1159 352.5q0 -151.5 63.5 -151.5t63.5 151.5t-63.5 151.5t-63.5 -151.5zM1628 352q0 162 88 270.5t248 108.5t248 -108.5t88 -270.5t-88 -270.5t-248 -108.5t-248 108.5t-88 270.5zM1901 352.5 q0 -151.5 63.5 -151.5t63.5 151.5t-63.5 151.5t-63.5 -151.5z" />
<glyph unicode="&#x2032;" horiz-adv-x="608" d="M100 1544h408l-62 -741h-284z" />
<glyph unicode="&#x2033;" horiz-adv-x="1216" d="M708 1544h408l-62 -741h-284zM100 1544h408l-62 -741h-284z" />
<glyph unicode="&#x2034;" horiz-adv-x="1824" d="M1317 1544h408l-62 -741h-284zM708 1544h408l-62 -741h-284zM100 1544h408l-62 -741h-284z" />
<glyph unicode="&#x2035;" horiz-adv-x="778" d="M125 1567h319l109 -344h-223z" />
<glyph unicode="&#x2036;" horiz-adv-x="1556" d="M903 1567h319l109 -344h-223zM125 1567h319l109 -344h-223z" />
<glyph unicode="&#x2037;" horiz-adv-x="2334" d="M1681 1567h319l109 -344h-223zM903 1567h319l109 -344h-223zM125 1567h319l109 -344h-223z" />
<glyph unicode="&#x2039;" horiz-adv-x="686" d="M78 655l350 465l180 -135l-262 -330l262 -329l-180 -136z" />
<glyph unicode="&#x203a;" horiz-adv-x="686" d="M78 326l262 329l-262 330l180 135l350 -465l-350 -465z" />
<glyph unicode="&#x203c;" horiz-adv-x="1245" d="M697 215q0 94 67.5 162.5t157.5 68.5q100 0 172 -67.5t72 -169.5q0 -96 -70 -164t-166 -68q-98 0 -165.5 70t-67.5 168zM736 553v1079h407v-1079h-407zM74 215q0 94 67.5 162.5t157.5 68.5q100 0 172 -67.5t72 -169.5q0 -96 -70 -164t-166 -68q-98 0 -165.5 70t-67.5 168 zM113 553v1079h407v-1079h-407z" />
<glyph unicode="&#x203e;" horiz-adv-x="618" d="M-395 123v217h790v-217h-790z" />
<glyph unicode="&#x2044;" horiz-adv-x="479" d="M-391 61l1091 1547l168 -117l-1099 -1544z" />
<glyph unicode="&#x2047;" horiz-adv-x="2232" d="M1173 1133v30q-4 217 133.5 353.5t352.5 136.5q221 0 363.5 -141.5t142.5 -362.5q0 -158 -77 -277.5t-229 -152.5v-160h-397v379l72 -2q111 0 165 45t54 154q0 174 -90 174q-88 0 -88 -176h-402zM1433 215q0 94 68 162.5t158 68.5q100 0 171.5 -67.5t71.5 -169.5 q0 -96 -69.5 -164t-165.5 -68q-98 0 -166 70t-68 168zM57 1133v30q-4 217 133.5 353.5t352.5 136.5q221 0 363.5 -141.5t142.5 -362.5q0 -158 -77 -277.5t-229 -152.5v-160h-397v379l72 -2q111 0 165 45t54 154q0 174 -90 174q-88 0 -88 -176h-402zM317 215q0 94 68 162.5 t158 68.5q100 0 171.5 -67.5t71.5 -169.5q0 -96 -69.5 -164t-165.5 -68q-98 0 -166 70t-68 168z" />
<glyph unicode="&#x2048;" horiz-adv-x="1738" d="M1190 215q0 94 67.5 162.5t157.5 68.5q100 0 172 -67.5t72 -169.5q0 -96 -70 -164t-166 -68q-98 0 -165.5 70t-67.5 168zM1229 553v1079h407v-1079h-407zM57 1133v30q-4 217 133.5 353.5t352.5 136.5q221 0 363.5 -141.5t142.5 -362.5q0 -158 -77 -277.5t-229 -152.5 v-160h-397v379l72 -2q111 0 165 45t54 154q0 174 -90 174q-88 0 -88 -176h-402zM317 215q0 94 68 162.5t158 68.5q100 0 171.5 -67.5t71.5 -169.5q0 -96 -69.5 -164t-165.5 -68q-98 0 -166 70t-68 168z" />
<glyph unicode="&#x2049;" horiz-adv-x="1738" d="M680 1133v30q-4 217 133.5 353.5t352.5 136.5q221 0 363.5 -141.5t142.5 -362.5q0 -158 -77 -277.5t-229 -152.5v-160h-397v379l72 -2q111 0 165 45t54 154q0 174 -90 174q-88 0 -88 -176h-402zM940 215q0 94 68 162.5t158 68.5q100 0 171.5 -67.5t71.5 -169.5 q0 -96 -69.5 -164t-165.5 -68q-98 0 -166 70t-68 168zM74 215q0 94 67.5 162.5t157.5 68.5q100 0 172 -67.5t72 -169.5q0 -96 -70 -164t-166 -68q-98 0 -165.5 70t-67.5 168zM113 553v1079h407v-1079h-407z" />
<glyph unicode="&#x2057;" horiz-adv-x="2433" d="M1925 1544h408l-62 -741h-284zM1317 1544h408l-62 -741h-284zM708 1544h408l-62 -741h-284zM100 1544h408l-62 -741h-284z" />
<glyph unicode="&#x205f;" horiz-adv-x="509" />
<glyph unicode="&#x2060;" horiz-adv-x="0" />
<glyph unicode="&#x20a8;" horiz-adv-x="2181" d="M1298 90l148 299q104 -113 201 -113q31 0 54 14.5t23 41.5q0 49 -104 86q-135 47 -209 120.5t-74 200.5q0 166 122 265.5t313 99.5q174 0 329 -88l-137 -293q-37 35 -52.5 47t-50 30.5t-65.5 18.5q-23 0 -41 -14t-18 -39q0 -55 121 -100q125 -47 193.5 -118t68.5 -192 q0 -174 -127 -276.5t-305 -102.5q-185 0 -390 113zM123 0v1544h403q143 0 252 -23.5t196 -80t132 -158.5t45 -252q0 -133 -60.5 -236.5t-179.5 -150.5l312 -643h-453l-231 643l-4 -4l6 -227v-412h-418zM541 831l26 -2q80 0 125 58.5t45 138.5q0 98 -53 144q-49 42 -129 43 q-7 0 -14 -1v-381z" />
<glyph unicode="&#x20ac;" d="M33 502l67 196h86q0 8 -1 30t-1 34q0 10 1 29.5t1 27.5h-153l67 197h103q90 553 598 553q113 0 201 -24.5t128 -53.5v-317q-80 92 -260 92q-238 0 -278 -250h467l-68 -197h-418q-2 -14 -2 -55q0 -47 2 -66h375l-69 -196h-281q39 -227 272 -228q172 0 260 84v-313 q-102 -70 -329 -70q-260 0 -406.5 130.5t-187.5 396.5h-174z" />
<glyph unicode="&#x2122;" horiz-adv-x="1761" d="M-35 1364v180h686v-180h-243v-647h-209v647h-234zM741 717v827h301l185 -510h4l184 510h301v-827h-190v647h-4l-230 -647h-127l-229 647h-4v-647h-191z" />
<glyph unicode="&#x2202;" horiz-adv-x="1314" d="M74 516q0 266 137 427t346 161q106 0 183 -48t112 -102h2v58q0 164 -91 299t-247 135q-154 0 -287 -105l-94 277q174 129 432 129q276 0 460.5 -223.5t184.5 -620.5q0 -428 -175 -673.5t-478 -245.5q-156 0 -270.5 88t-164.5 205.5t-50 238.5zM436 500q0 -88 45 -149.5 t115 -61.5h2q61 0 111.5 65.5t77 147.5t36.5 168q-12 47 -63 94t-125 47q-90 0 -144.5 -93t-54.5 -218z" />
<glyph unicode="&#x2206;" horiz-adv-x="1462" d="M49 0v201l471 1366h441l446 -1360v-207h-1358zM430 295h584l-180 500q-14 63 -55.5 203.5t-51.5 181.5h-6q-8 -37 -45 -164t-53 -191z" />
<glyph unicode="&#x220f;" horiz-adv-x="1626" d="M51 1208v332h1522v-332h-211v-1421h-365v1421h-370v-1421h-365v1421h-211z" />
<glyph unicode="&#x2211;" horiz-adv-x="1239" d="M51 16l486 652l-471 616v256h1099v-309h-612v-8l395 -494l-450 -598v-6h704v-338h-1151v229z" />
<glyph unicode="&#x221a;" horiz-adv-x="1345" d="M66 760l432 178l188 -610q10 -41 26.5 -115t22.5 -100l4 -2q29 180 39 237l348 1512h250l-499 -2153h-283l-311 922l-162 -66z" />
<glyph unicode="&#x221e;" horiz-adv-x="1716" d="M100 621q0 176 108.5 286.5t272.5 110.5q119 0 209 -56.5t178 -173.5q98 113 152 154q109 78 237 76q150 0 253.5 -106.5t103.5 -276.5v-2q0 -184 -109.5 -295t-257.5 -111q-104 0 -197.5 49.5t-189.5 190.5q-92 -119 -184 -179.5t-215 -60.5q-145 0 -253 110t-108 284z M291 618q0 -84 56 -142t136 -58h4q76 0 136.5 49t134.5 143q-94 135 -140 172q-61 49 -139 49q-86 0 -136 -57.5t-52 -155.5zM963 629q92 -125 150 -168t136 -43t125 64.5t47 135.5q0 90 -50 151.5t-132 61.5h-2q-23 0 -45.5 -6t-39.5 -13t-38.5 -23.5t-34 -27.5t-34 -33.5 t-29.5 -32t-28.5 -35t-24.5 -31.5z" />
<glyph unicode="&#x222b;" horiz-adv-x="935" d="M55 -365l39 259q45 -20 92 -21q63 0 93 39q49 70 49 315q0 219 -17.5 543t-17.5 518q0 201 32.5 319.5t110.5 200.5q98 113 295 113q86 0 146 -23l-31 -249q-45 16 -76 16q-74 0 -108 -59q-49 -66 -50 -353q0 -178 17.5 -491t17.5 -531q0 -289 -69 -438 q-94 -193 -334 -192q-119 -1 -189 34z" />
<glyph unicode="&#x2248;" horiz-adv-x="1191" d="M70 356q49 102 139 170t192 68q23 0 42.5 -2t40 -7t32.5 -9.5t32.5 -13.5t25.5 -12l26 -15q20 -12 23 -13q14 -8 45.5 -28.5t47 -29.5t39 -17.5t46.5 -8.5q57 0 97 37t93 119l123 -117q-57 -109 -139 -174t-172 -65q-102 0 -236 84q-43 29 -62.5 40t-51 22t-64.5 11 q-14 0 -27.5 -3t-23.5 -5t-22.5 -10t-19.5 -13.5t-20 -17.5l-17 -17q-5 -5 -17.5 -21.5t-16.5 -21.5t-17 -23.5t-15 -22.5zM70 795q51 100 140 167.5t191.5 67.5t223.5 -74q10 -6 31.5 -19t28.5 -18.5t24.5 -14.5t25.5 -12t20.5 -8t24 -6t23.5 -1q55 0 95 36.5t93 116.5 l123 -115q-57 -111 -140 -176t-169 -65q-104 0 -238 84q-96 61 -141 69q-18 4 -37 4q-16 0 -29.5 -2t-28 -9t-23.5 -11t-22.5 -17.5t-19.5 -18.5t-20.5 -23.5t-17.5 -21.5t-18 -25.5t-17 -24.5z" />
<glyph unicode="&#x2260;" horiz-adv-x="1191" d="M100 281v204h349l114 279h-463v203h539l100 237l160 -59l-76 -178h267v-203h-340l-117 -279h457v-204h-533l-102 -242l-160 61l78 181h-273z" />
<glyph unicode="&#x2264;" horiz-adv-x="1191" d="M104 -57v207h990v-207h-990zM111 713v221l972 487v-235l-778 -361v-4l778 -360v-236z" />
<glyph unicode="&#x2265;" horiz-adv-x="1191" d="M106 -57v207h981v-207h-981zM117 225v236l776 360v6l-776 359v235l973 -487v-221z" />
<glyph unicode="&#x25ca;" horiz-adv-x="1339" d="M102 768l430 883h291l416 -883l-432 -883h-291zM420 776l207 -467q27 -90 35 -135h12q20 90 37 129l211 457l-203 454q-29 76 -41 146h-8q-14 -63 -43 -146z" />
<glyph unicode="&#xe000;" horiz-adv-x="1080" d="M0 1080h1080v-1080h-1080v1080z" />
<glyph unicode="&#xfb01;" horiz-adv-x="1402" d="M61 760v321h117v125q0 217 89 333t261 116q96 0 195 -29v-371q-49 37 -82 37q-43 0 -52 -30.5t-9 -112.5v-16v-52h143v-321h-143v-760h-402v760h-117zM860 1421q0 96 68.5 165t163.5 69q98 0 167.5 -66.5t69.5 -165t-67.5 -168t-165.5 -69.5q-96 0 -166 68.5t-70 166.5z M893 0v1081h401v-1081h-401z" />
<glyph unicode="&#xfb02;" horiz-adv-x="1402" d="M61 760v321h117v125q0 217 89 333t261 116q96 0 195 -29v-371q-49 37 -82 37q-39 0 -50 -36.5t-11 -122.5v-52h143v-321h-143v-760h-402v760h-117zM893 0v1632h401v-1632h-401z" />
</font>
</defs>
</svg>
